<?xml version="1.0" encoding="utf-8"?>
<svg xmlns="http://www.w3.org/2000/svg" viewBox="0 0 26 26" width="28" height="28">
  <path d="M13.5 0C6.601563 0 1 5.601563 1 12.5C1 19.398438 6.601563 25 13.5 25C20.398438 25 26 19.398438 26 12.5C26 5.601563 20.398438 0 13.5 0 Z M 13.5 1.8125C19.398438 1.8125 24.1875 6.601563 24.1875 12.5C24.1875 18.398438 19.398438 23.1875 13.5 23.1875C7.601563 23.1875 2.8125 18.398438 2.8125 12.5C2.8125 6.601563 7.601563 1.8125 13.5 1.8125 Z M 11.90625 7L6.40625 12.5L11.90625 18L14.6875 18L10.6875 14L20 14L20 11L10.6875 11L14.6875 7Z" fill="#5B5B5B" />
</svg>